<?xml version="1.0" encoding="utf-8"?>
<!-- Generator: Adobe Illustrator 19.1.0, SVG Export Plug-In . SVG Version: 6.00 Build 0)  -->
<svg version="1.1" id="Layer_1" xmlns="http://www.w3.org/2000/svg" xmlns:xlink="http://www.w3.org/1999/xlink" x="0px" y="0px"
	 viewBox="0 0 792 612" enable-background="new 0 0 792 612" xml:space="preserve">
<path id="sun_1_" fill="#FFBF15" d="M698.4,322.4c0,11.3-0.6,22.4-1.8,33.3c-7,63.6-33.6,121.2-73.8,166.7H169.2
	c-40.1-45.5-66.8-103.1-73.8-166.7c-1.2-10.9-1.8-22.1-1.8-33.3C93.6,155.4,229,20,396,20S698.4,155.4,698.4,322.4z"/>
<g id="mountains_1_">
	<path fill="#030059" d="M767.7,482.5l-35.9-63.9l-35.3-62.8l-52.4-93.3l-106.1,85.4L396,122.4L253.9,347.9l-106.1-85.5l-52.3,93.3
		l-43.2,77l-27.9,49.8L1.9,522.4h788.3L767.7,482.5z M637.6,304.2l45.1,81.3l-48.5-44.9l-13.4,32.3l-4.9-34L560,361.5L637.6,304.2z
		 M395.8,173.4l108.8,181.1l-65.6-57l-43.1,68.8l-43-68.6l-65.1,55.7L395.8,173.4z M154.4,304.1l76.7,56.8l-55-22l-6.2,34.1
		l-12.2-32.4l-47.9,43.9L154.4,304.1z"/>
	<polygon fill="#FFFFFF" points="682.6,385.5 634.2,340.5 620.8,372.9 615.9,338.9 560,361.5 637.6,304.2 	"/>
	<polygon fill="#FFFFFF" points="504.6,354.5 439,297.6 395.8,366.3 352.8,297.7 287.7,353.4 395.8,173.4 	"/>
	<polygon fill="#FFFFFF" points="231.1,360.9 176.1,338.9 169.9,373 157.8,340.6 109.9,384.4 154.4,304.1 	"/>
</g>
<polygon fill="#009444" points="790.1,522.4 1.9,522.4 24.3,482.5 767.7,482.5 "/>
<g>
	
		<text transform="matrix(1 0 0 1 171.9866 478.4736)" fill="#FFFFFF" font-family="'TwCenMT-Regular'" font-size="134.9592px" letter-spacing="6">vanture</text>
</g>
</svg>
