<?xml version="1.0" encoding="utf-8"?>
<!-- Generator: Adobe Illustrator 19.1.0, SVG Export Plug-In . SVG Version: 6.00 Build 0)  -->
<svg version="1.1" id="Layer_1" xmlns="http://www.w3.org/2000/svg" xmlns:xlink="http://www.w3.org/1999/xlink" x="0px" y="0px"
	 viewBox="0 0 792 503.8" enable-background="new 0 0 792 503.8" xml:space="preserve">
<path id="sun_6_" fill="#FFBF15" d="M698.5,302.4c0,11.3-0.6,22.4-1.8,33.3c-7,63.6-33.6,121.2-73.8,166.7H169.3
	c-40.1-45.5-66.8-103.1-73.8-166.7c-1.2-10.9-1.8-22.1-1.8-33.3C93.7,135.4,229.1,0,396.1,0S698.5,135.4,698.5,302.4z"/>
<g id="mountains_7_">
	<path fill="#030059" d="M767.7,463.9l-35.9-63.9l-35.3-62.8l-52.4-93.3l-106.1,85.4L396,103.7L253.9,329.3l-106.1-85.5l-52.3,93.3
		l-43.2,77l-27.9,49.8L1.9,503.8h788.3L767.7,463.9z M637.6,285.5l45.1,81.3l-48.5-44.9l-13.4,32.3l-4.9-34L560,342.8L637.6,285.5z
		 M395.8,154.8l108.8,181.1l-65.6-57l-43.1,68.8l-43-68.6l-65.1,55.7L395.8,154.8z M154.4,285.5l76.7,56.8l-55-22l-6.2,34.1
		l-12.2-32.4l-47.9,43.9L154.4,285.5z"/>
	<polygon fill="#FFFFFF" points="682.6,366.8 634.2,321.9 620.8,354.2 615.9,320.2 560,342.8 637.6,285.5 	"/>
	<polygon fill="#FFFFFF" points="504.6,335.9 439,278.9 395.8,347.7 352.8,279.1 287.7,334.8 395.8,154.8 	"/>
	<polygon fill="#FFFFFF" points="231.1,342.3 176.1,320.2 169.9,354.3 157.8,321.9 109.9,365.8 154.4,285.5 	"/>
</g>
<g>
	
		<text transform="matrix(1 0 0 1 171.9878 460.8115)" fill="#FFFFFF" font-family="'TwCenMT-Regular'" font-size="134.9592px" letter-spacing="6">vanture</text>
</g>
</svg>
