<svg id="Layer_1" data-name="Layer 1" xmlns="http://www.w3.org/2000/svg" viewBox="0 0 307.72 265.25">
  <defs>
    <style>
      .cls-1 {
        fill: #3dd6e2;
      }

      .cls-2 {
        fill: #ea6957;
      }

      .cls-3 {
        fill: #ffbc50;
      }

      .cls-4 {
        fill: none;
        stroke: #ea6957;
        stroke-miterlimit: 10;
        stroke-width: 3px;
      }
    </style>
  </defs>
  <title>surf-logo</title>
  <path class="cls-1" d="M135,258s2.25-7.25,4.5-9.25,7.5-7,8-5.75-2,5.25-2,5.25,8.25-7.25,12-9.25,10.5-5.25,11.75-4.25-9.5,9-9.5,9S173.25,237,176,237s-3.75,5.5-3.75,5.5a52.67,52.67,0,0,1,9.25-1.5c3.25,0-2.75,4.75-2.75,4.75s4-.5,6,.5.25,3,1.5,3,3-3.75,7.75-5.75,11.5-4.75,11.75-2.75S200.5,246,200.5,246s5.25-2.5,7.25-1-2.5,4.25-2.5,4.25,5.5-2.25,8.25-.25,1,3.5,1,3.5,8.5-6.5,12.75-6.5-5.5,7.25-5.5,7.25,9.25-1.5,10.25.75-3.75,3-3.75,3,14.75-.25,14.75,1.75-5.25,3.5-5.25,3.5,10.25.5,7.5,2,6.25,2.5,6.25,2.5l14.25,7.5S240,271,235,270.5s8.5,2.25,6.25,3-33.75-5.25-33.75-5.25,14.75,3.25,11,4.5S181,266.5,181,266.5s12.5,3.25,7.25,3.75S135,258,135,258Z" transform="translate(-8.28 -9)"/>
  <path class="cls-2" d="M8.33,223c-1,2,13,15.33,21.33,19.33s37,13.67,46.33,16,55,10.67,62,11.33S171.33,267,171.33,267,112,248.75,98.67,246.38s-32-6.21-38.67-7.88-21.75-4.25-32.67-8.5C22.47,228.11,8.33,223,8.33,223Z" transform="translate(-8.28 -9)"/>
  <path class="cls-3" d="M291,9l25,23.67L303.5,47.33,227,203.67,200.67,215,95.33,233l-15.27,9.55L77.33,236l7.33-8.67s15-25.67,20.33-33,17.33-25,17.33-25-3.67-8.33-2-10.33,11-1.67,11-1.67S146,139,152,132.33,214.33,72,227,60,291,9,291,9Z" transform="translate(-8.28 -9)"/>
  <path class="cls-2" d="M108.75,251.5c3.33.67,11.25,4.17,11.25,4.17v-3.85s4.33-3.39,6.67-5.44a42.15,42.15,0,0,1,5.33-3.83h7.67s4.33,1.12,9,1.79,3.58,1.67,3.58,1.67-.58,5.33.08,7.33,0,9.33,0,9.33L163.75,266s2.28,1.24.25-2.75a16.41,16.41,0,0,0-4-4.75s1.67-6.83,1.67-9.5a24.57,24.57,0,0,0-1.33-6.45S166,231.33,169,224.33s2.33-10.67,2.33-10.67,3,2.33,4.33,0,2-13.33,2-15.33,3-5.67,0-6.67-7.67,0-7.67,0l1.33,5,2,3.33-2,4-6-2,.67-5.33s6-10-1.67-13A11.06,11.06,0,0,0,152,186l-.67,4.33-.58,3.67-.25,4,2.13.88-1,2.79-6.17,1-5.5-2A56.61,56.61,0,0,1,141,190c1-4,4.5-10.33,4.5-10.33a9.67,9.67,0,0,0-3.83-3.33,13.29,13.29,0,0,0-5.33-1.33,43,43,0,0,0,0,6.67,36.85,36.85,0,0,0,1.33,4.33s-3,7.33-3.33,11.33-.67,8.33-.67,8.33l11.83,7S146,219,143.33,223c-1.57,2.35-6.33,7.67-6.33,7.67s-7,2.33-9.67,4S117.67,245,117.67,245s-4-.91-5.67,1.38A59.57,59.57,0,0,0,108.75,251.5Z" transform="translate(-8.28 -9)"/>
  <path class="cls-4" d="M221,206.5s5,5.53,2.67,5.67c-14.33.83-52.33-16.5-64.5-22.17s-41.88-23.09-38.5-30.33c1.17-2.5,11.33-.17,11.33-.17" transform="translate(-8.28 -9)"/>
</svg>
